<?xml version="1.0" standalone="no"?>
<!DOCTYPE svg PUBLIC "-//W3C//DTD SVG 20010904//EN"
 "http://www.w3.org/TR/2001/REC-SVG-20010904/DTD/svg10.dtd">
<svg version="1.0" xmlns="http://www.w3.org/2000/svg"
 width="260.000000pt" height="260.000000pt" viewBox="0 0 260.000000 260.000000"
 preserveAspectRatio="xMidYMid meet">
<metadata>
Created by potrace 1.11, written by Peter Selinger 2001-2013
</metadata>
<g transform="translate(0.000000,260.000000) scale(0.100000,-0.100000)"
fill="#000000" stroke="none">
<path d="M0 1674 l0 -284 195 0 195 0 0 150 0 150 260 0 260 0 0 -80 0 -80
-160 0 -160 0 -1 -30 c-1 -16 -1 -41 -1 -55 0 -58 -9 -55 142 -55 138 0 140 0
141 -22 2 -55 0 -108 -4 -115 -3 -4 -66 -7 -141 -7 -75 1 -136 -2 -137 -7 -1
-11 -1 -46 0 -107 l1 -47 158 1 c86 0 162 -1 167 -3 12 -4 16 -145 4 -153 -6
-4 -448 -5 -511 -1 -16 1 -18 16 -18 159 l0 158 -195 1 -195 0 0 -303 0 -302
1074 -1 c844 -1 1075 2 1078 12 3 10 3 225 -1 267 -1 12 -23 15 -130 16 -208
2 -271 33 -327 161 -41 93 -50 257 -19 377 28 108 112 190 226 219 179 46 351
-52 385 -220 6 -28 3 -33 -18 -38 -13 -3 -42 -7 -64 -7 -88 -2 -91 -1 -113 46
-16 31 -32 48 -61 61 -38 17 -42 17 -78 1 -73 -33 -102 -112 -97 -270 5 -138
57 -204 153 -193 59 6 85 33 86 89 l1 43 -50 3 c-27 2 -54 7 -59 12 -10 10
-12 92 -3 106 3 5 74 9 159 9 l153 0 2 -315 c1 -173 2 -330 2 -347 l1 -33 150
1 150 1 0 658 0 658 -1300 0 -1300 0 0 -284z m1142 -19 c49 -184 102 -381 115
-425 l16 -55 23 80 c13 44 44 160 70 258 l47 177 109 0 c59 0 108 -3 108 -7 0
-15 -243 -738 -251 -749 -10 -13 -172 -9 -198 5 -11 6 -58 133 -138 370 -110
326 -120 362 -105 371 9 5 57 9 107 7 l89 -2 8 -30z m466 -619 c12 -4 23 -13
23 -19 1 -7 3 -22 4 -35 3 -30 -31 -72 -59 -72 -28 0 -53 26 -60 62 -3 19 2
34 20 51 25 26 32 27 72 13z"/>
</g>
</svg>
