<?xml version="1.0" encoding="UTF-8" standalone="no"?>
<!-- Created with Inkscape (http://www.inkscape.org/) -->

<svg
   xmlns:dc="http://purl.org/dc/elements/1.1/"
   xmlns:cc="http://creativecommons.org/ns#"
   xmlns:rdf="http://www.w3.org/1999/02/22-rdf-syntax-ns#"
   xmlns:svg="http://www.w3.org/2000/svg"
   xmlns="http://www.w3.org/2000/svg"
   xmlns:sodipodi="http://sodipodi.sourceforge.net/DTD/sodipodi-0.dtd"
   xmlns:inkscape="http://www.inkscape.org/namespaces/inkscape"
   width="13.400056cm"
   height="7.4411144cm"
   id="svg2"
   version="1.1"
   inkscape:version="0.91 r13725"
   sodipodi:docname="logo.svg"
   inkscape:export-filename="/media/Documentos/WEB/Hatha Contabilidade/04 SVG/01 Cartão de Visita/02 Cartão de Visita (Amanda).png"
   inkscape:export-xdpi="1144.0699"
   inkscape:export-ydpi="1144.0699">
  <defs
     id="defs4" />
  <sodipodi:namedview
     id="base"
     pagecolor="#ffffff"
     bordercolor="#666666"
     borderopacity="1.0"
     inkscape:pageopacity="0.0"
     inkscape:pageshadow="2"
     inkscape:zoom="0.36563124"
     inkscape:cx="219.45892"
     inkscape:cy="57.180974"
     inkscape:document-units="px"
     inkscape:current-layer="g3929"
     showgrid="false"
     inkscape:window-width="1276"
     inkscape:window-height="756"
     inkscape:window-x="0"
     inkscape:window-y="0"
     inkscape:window-maximized="0"
     showguides="false"
     inkscape:guide-bbox="true"
     inkscape:snap-object-midpoints="false"
     inkscape:snap-center="false"
     inkscape:snap-bbox="true"
     inkscape:bbox-paths="true"
     inkscape:bbox-nodes="true"
     inkscape:snap-bbox-edge-midpoints="true"
     inkscape:snap-bbox-midpoints="true"
     inkscape:snap-global="true"
     units="cm"
     fit-margin-top="0"
     fit-margin-left="0"
     fit-margin-right="0"
     fit-margin-bottom="0">
    <sodipodi:guide
       position="1157.3077,3633.2488"
       orientation="1,0"
       id="guide4396" />
  </sodipodi:namedview>
  <metadata
     id="metadata7">
    <rdf:RDF>
      <cc:Work
         rdf:about="">
        <dc:format>image/svg+xml</dc:format>
        <dc:type
           rdf:resource="http://purl.org/dc/dcmitype/StillImage" />
        <dc:title />
      </cc:Work>
    </rdf:RDF>
  </metadata>
  <g
     inkscape:label="Camada 1"
     inkscape:groupmode="layer"
     id="layer1"
     transform="translate(1532.3077,-2901.1161)">
    <g
       inkscape:export-ydpi="73.07"
       inkscape:export-xdpi="73.07"
       inkscape:export-filename="/home/fabio/Área de Trabalho/coneti-cartao.png"
       transform="matrix(1.1089632,0,0,1.1089632,-81.347492,225.52153)"
       id="g3211" />
    <g
       inkscape:export-ydpi="73.07"
       inkscape:export-xdpi="73.07"
       inkscape:export-filename="/home/fabio/Área de Trabalho/coneti-cartao.png"
       transform="matrix(1.1089632,0,0,1.1089632,-115.8713,219.56915)"
       id="g3993" />
    <g
       id="g3929"
       transform="translate(223.07692,876.92308)"
       inkscape:export-filename="/Users/fabio/Sites/portalescolavirtual/images/logo.png"
       inkscape:export-xdpi="14.216357"
       inkscape:export-ydpi="14.216357">
      <rect
         style="fill:#37474f;fill-opacity:1"
         x="-1745.7384"
         y="2142.0906"
         class="st0"
         width="83.600006"
         height="20.900002"
         id="rect3931" />
      <rect
         style="fill:#37474f;fill-opacity:1"
         x="2153.4482"
         y="1355.5092"
         transform="matrix(0,1,-1,0,0,0)"
         class="st0"
         width="124.8641"
         height="20.900002"
         id="rect3933" />
      <g
         id="g3935"
         transform="matrix(5.3589744,0,0,5.3589744,-1861.4923,1947.5597)"
         style="fill:#37474f;fill-opacity:1">
        <circle
           style="fill:#37474f;fill-opacity:1"
           r="1.9"
           transform="matrix(0.8,-0.6,0.6,0.8,-14.7461,53.3466)"
           class="st0"
           cx="72.599998"
           cy="48.799999"
           id="circle3937" />
      </g>
      <g
         id="g3939"
         transform="matrix(5.3589744,0,0,5.3589744,-1861.4923,1947.5597)"
         style="fill:#37474f;fill-opacity:1"
         inkscape:export-filename="/Users/fabio/teste.png"
         inkscape:export-xdpi="20.471556"
         inkscape:export-ydpi="20.471556">
        <path
           style="fill:#37474f;fill-opacity:1"
           inkscape:connector-curvature="0"
           class="st0"
           d="m 108.4,63.5 -88.6,0 0,-49.2 88.6,0 0,49.2 z m -84.6,-4 80.6,0 0,-41.2 -80.6,0 0,41.2 z"
           id="path3941" />
      </g>
      <g
         id="g3979"
         transform="matrix(5.3589744,0,0,5.3589744,-1861.4923,1947.5597)"
         style="fill:#37474f;fill-opacity:1">
        <path
           style="fill:#37474f;fill-opacity:1"
           inkscape:connector-curvature="0"
           class="st0"
           d="m 50.6,40.4 -8.7,0 0,5.5 10.3,0 0,4.3 -15.9,0 0,-23 15.8,0 0,4.3 -10.2,0 0,4.8 8.7,0 0,4.1 z"
           id="path3981" />
        <path
           style="fill:#37474f;fill-opacity:1"
           inkscape:connector-curvature="0"
           class="st0"
           d="m 63.3,43.9 4.6,-16.7 6.2,0 -7.7,23 -6.1,0 -7.7,-23 6.1,0 4.6,16.7 z"
           id="path3983" />
        <path
           style="fill:#37474f;fill-opacity:1"
           inkscape:connector-curvature="0"
           class="st0"
           d="m 94.3,47.3 c -0.9,0.9 -2.1,1.7 -3.7,2.3 -1.6,0.6 -3.4,0.9 -5.4,0.9 -3,0 -5.4,-0.9 -7.2,-2.8 -1.8,-1.8 -2.8,-4.4 -2.9,-7.7 l 0,-2 c 0,-2.3 0.4,-4.2 1.2,-5.9 0.8,-1.7 1.9,-3 3.4,-3.9 1.5,-0.9 3.2,-1.4 5.2,-1.4 2.9,0 5.1,0.7 6.7,2 1.6,1.3 2.5,3.3 2.8,5.9 l -5.4,0 c -0.2,-1.3 -0.6,-2.2 -1.2,-2.7 -0.6,-0.5 -1.5,-0.8 -2.7,-0.8 -1.4,0 -2.5,0.6 -3.2,1.8 -0.8,1.2 -1.1,2.9 -1.2,5 l 0,1.4 c 0,2.3 0.4,4 1.2,5.2 0.8,1.2 2,1.7 3.7,1.7 1.4,0 2.5,-0.3 3.2,-1 l 0,-3.6 -3.8,0 0,-3.8 9.4,0 0,9.4 z"
           id="path3985" />
      </g>
    </g>
  </g>
  <style
     id="style3770"
     type="text/css">
	.st0{fill:#1A1A1A;}
	.st1{fill:#333333;}
</style>
</svg>
